<?xml version="1.0" encoding="UTF-8"?>
<!DOCTYPE svg PUBLIC "-//W3C//DTD SVG 1.1//EN" "http://www.w3.org/Graphics/SVG/1.1/DTD/svg11.dtd">
<svg xmlns="http://www.w3.org/2000/svg" version="1.1" width="577px" height="433px" style="shape-rendering:geometricPrecision; text-rendering:geometricPrecision; image-rendering:optimizeQuality; fill-rule:evenodd; clip-rule:evenodd" xmlns:xlink="http://www.w3.org/1999/xlink">
<g><path style="opacity:0.981" fill="#797f8c" d="M 216.5,194.5 C 215.532,196.607 215.198,198.941 215.5,201.5C 213.5,201.5 211.5,201.5 209.5,201.5C 209.737,200.209 209.404,199.209 208.5,198.5C 208.261,194.158 207.927,189.824 207.5,185.5C 210.833,185.5 214.167,185.5 217.5,185.5C 217.736,188.609 217.403,191.609 216.5,194.5 Z"/></g>
<g><path style="opacity:0.562" fill="#a9aeb6" d="M 117.5,190.5 C 129.655,189.505 141.989,189.171 154.5,189.5C 154.5,192.5 154.5,195.5 154.5,198.5C 145.833,198.5 137.167,198.5 128.5,198.5C 128.167,198.5 127.833,198.5 127.5,198.5C 135.984,197.507 144.651,197.174 153.5,197.5C 153.5,195.167 153.5,192.833 153.5,190.5C 141.5,190.5 129.5,190.5 117.5,190.5 Z"/></g>
<g><path style="opacity:0.564" fill="#c3c7cc" d="M 186.5,245.5 C 186.5,229.5 186.5,213.5 186.5,197.5C 191.833,197.5 197.167,197.5 202.5,197.5C 202.5,195.167 202.5,192.833 202.5,190.5C 188.5,190.5 174.5,190.5 160.5,190.5C 160.5,192.833 160.5,195.167 160.5,197.5C 165.833,197.5 171.167,197.5 176.5,197.5C 176.5,213.5 176.5,229.5 176.5,245.5C 175.504,230.009 175.17,214.342 175.5,198.5C 170.167,198.5 164.833,198.5 159.5,198.5C 159.5,195.5 159.5,192.5 159.5,189.5C 174.167,189.5 188.833,189.5 203.5,189.5C 203.5,192.5 203.5,195.5 203.5,198.5C 198.167,198.5 192.833,198.5 187.5,198.5C 187.83,214.342 187.496,230.009 186.5,245.5 Z"/></g>
<g><path style="opacity:0.994" fill="#777d8a" d="M 261.5,199.5 C 261.5,201.167 261.5,202.833 261.5,204.5C 258.167,204.5 254.833,204.5 251.5,204.5C 247.944,197.92 243.111,196.586 237,200.5C 234.955,203.719 235.455,206.552 238.5,209C 244.57,211.41 250.57,213.91 256.5,216.5C 257.785,218.452 259.451,220.118 261.5,221.5C 265.986,229.269 264.986,236.436 258.5,243C 248.86,247.628 239.193,247.628 229.5,243C 224.877,239.254 222.877,234.421 223.5,228.5C 227.167,228.5 230.833,228.5 234.5,228.5C 235.81,235.827 240.143,238.661 247.5,237C 251.488,235.516 253.154,232.683 252.5,228.5C 252.715,226.821 252.048,225.821 250.5,225.5C 250.027,224.094 249.027,223.427 247.5,223.5C 239.151,222.076 231.985,218.409 226,212.5C 224.229,207.87 224.063,203.203 225.5,198.5C 226.906,198.027 227.573,197.027 227.5,195.5C 228.957,193.215 230.957,191.382 233.5,190C 241.452,187.602 249.119,188.268 256.5,192C 259.2,193.857 260.866,196.357 261.5,199.5 Z"/></g>
<g><path style="opacity:0.993" fill="#a1a198" d="M 307.5,188.5 C 318.577,186.884 327.744,190.218 335,198.5C 337.006,201.536 337.84,204.869 337.5,208.5C 333.818,208.665 330.152,208.499 326.5,208C 321.434,198.895 314.1,196.562 304.5,201C 299.447,205.481 297.113,211.148 297.5,218C 298.546,234.69 306.879,240.024 322.5,234C 324.081,232.172 325.415,230.172 326.5,228C 330.152,227.501 333.818,227.335 337.5,227.5C 336.658,237.511 331.325,243.678 321.5,246C 299.563,249.393 287.563,240.06 285.5,218C 285.758,202.57 293.091,192.737 307.5,188.5 Z"/></g>
<g><path style="opacity:0.994" fill="#a0a097" d="M 366.5,188.5 C 383.074,186.362 394.241,193.029 400,208.5C 402.729,239.773 388.896,251.607 358.5,244C 347.289,236.065 342.789,225.231 345,211.5C 347.257,199.08 354.424,191.414 366.5,188.5 Z M 369.5,198.5 C 380.081,197.691 386.581,202.358 389,212.5C 390.909,231.264 382.742,238.764 364.5,235C 354.994,226.776 353.16,216.942 359,205.5C 361.701,201.748 365.201,199.415 369.5,198.5 Z"/></g>
<g><path style="opacity:0.58" fill="#b9bcc2" d="M 84.5,237.5 C 83.5037,222.009 83.1704,206.342 83.5,190.5C 80.5,190.5 77.5,190.5 74.5,190.5C 74.5,208.833 74.5,227.167 74.5,245.5C 85.8333,245.5 97.1667,245.5 108.5,245.5C 97.012,246.495 85.3453,246.828 73.5,246.5C 73.5,227.5 73.5,208.5 73.5,189.5C 77.1667,189.5 80.8333,189.5 84.5,189.5C 84.5,205.5 84.5,221.5 84.5,237.5 Z"/></g>
<g><path style="opacity:0.985" fill="#6b7280" d="M 84.5,237.5 C 92.5,237.5 100.5,237.5 108.5,237.5C 108.5,240.167 108.5,242.833 108.5,245.5C 97.1667,245.5 85.8333,245.5 74.5,245.5C 74.5,227.167 74.5,208.833 74.5,190.5C 77.5,190.5 80.5,190.5 83.5,190.5C 83.1704,206.342 83.5037,222.009 84.5,237.5 Z"/></g>
<g><path style="opacity:0.988" fill="#6b7280" d="M 117.5,190.5 C 129.5,190.5 141.5,190.5 153.5,190.5C 153.5,192.833 153.5,195.167 153.5,197.5C 144.651,197.174 135.984,197.507 127.5,198.5C 127.5,203.5 127.5,208.5 127.5,213.5C 135.5,213.5 143.5,213.5 151.5,213.5C 151.5,216.167 151.5,218.833 151.5,221.5C 143.833,221.5 136.167,221.5 128.5,221.5C 127.512,226.64 127.179,231.974 127.5,237.5C 136.167,237.5 144.833,237.5 153.5,237.5C 153.5,240.167 153.5,242.833 153.5,245.5C 141.5,245.5 129.5,245.5 117.5,245.5C 117.5,227.167 117.5,208.833 117.5,190.5 Z"/></g>
<g><path style="opacity:0.989" fill="#6c7381" d="M 186.5,245.5 C 183.167,246.833 179.833,246.833 176.5,245.5C 176.5,229.5 176.5,213.5 176.5,197.5C 171.167,197.5 165.833,197.5 160.5,197.5C 160.5,195.167 160.5,192.833 160.5,190.5C 174.5,190.5 188.5,190.5 202.5,190.5C 202.5,192.833 202.5,195.167 202.5,197.5C 197.167,197.5 191.833,197.5 186.5,197.5C 186.5,213.5 186.5,229.5 186.5,245.5 Z"/></g>
<g><path style="opacity:0.98" fill="#9d9d94" d="M 409.5,189.5 C 418.506,189.334 427.506,189.5 436.5,190C 450.957,193.528 457.957,202.862 457.5,218C 458.048,231.919 451.715,240.919 438.5,245C 428.879,246.286 419.212,246.786 409.5,246.5C 409.5,227.5 409.5,208.5 409.5,189.5 Z M 433.5,199.5 C 442.658,202.174 446.991,208.34 446.5,218C 446.675,225.877 443.342,231.544 436.5,235C 431.246,236.271 425.913,236.771 420.5,236.5C 420.5,224.167 420.5,211.833 420.5,199.5C 424.833,199.5 429.167,199.5 433.5,199.5 Z"/></g>
<g><path style="opacity:0.503" fill="#d0d0cb" d="M 499.5,213.5 C 491.5,213.5 483.5,213.5 475.5,213.5C 475.195,208.238 475.529,203.072 476.5,198C 484.827,197.5 493.16,197.334 501.5,197.5C 501.5,195.167 501.5,192.833 501.5,190.5C 489.833,190.5 478.167,190.5 466.5,190.5C 466.5,208.833 466.5,227.167 466.5,245.5C 478.5,245.5 490.5,245.5 502.5,245.5C 490.345,246.495 478.011,246.829 465.5,246.5C 465.5,227.5 465.5,208.5 465.5,189.5C 477.833,189.5 490.167,189.5 502.5,189.5C 502.5,192.5 502.5,195.5 502.5,198.5C 494.16,198.334 485.827,198.5 477.5,199C 476.533,203.401 476.2,207.901 476.5,212.5C 484.352,212.175 492.018,212.508 499.5,213.5 Z"/></g>
<g><path style="opacity:0.991" fill="#999990" d="M 499.5,213.5 C 499.5,215.833 499.5,218.167 499.5,220.5C 491.648,220.175 483.982,220.508 476.5,221.5C 476.5,226.5 476.5,231.5 476.5,236.5C 485.167,236.5 493.833,236.5 502.5,236.5C 502.5,239.5 502.5,242.5 502.5,245.5C 490.5,245.5 478.5,245.5 466.5,245.5C 466.5,227.167 466.5,208.833 466.5,190.5C 478.167,190.5 489.833,190.5 501.5,190.5C 501.5,192.833 501.5,195.167 501.5,197.5C 493.16,197.334 484.827,197.5 476.5,198C 475.529,203.072 475.195,208.238 475.5,213.5C 483.5,213.5 491.5,213.5 499.5,213.5 Z"/></g>
<g><path style="opacity:0.29" fill="#c9ccd1" d="M 227.5,195.5 C 227.573,197.027 226.906,198.027 225.5,198.5C 225.427,196.973 226.094,195.973 227.5,195.5 Z"/></g>
<g><path style="opacity:0.083" fill="#f1f1f0" d="M 433.5,199.5 C 429.167,199.5 424.833,199.5 420.5,199.5C 420.5,211.833 420.5,224.167 420.5,236.5C 419.505,224.011 419.171,211.344 419.5,198.5C 424.363,198.181 429.03,198.514 433.5,199.5 Z"/></g>
<g><path style="opacity:0.592" fill="#a5a9b2" d="M 216.5,194.5 C 216.5,197.167 216.5,199.833 216.5,202.5C 213.833,202.5 211.167,202.5 208.5,202.5C 208.5,201.167 208.5,199.833 208.5,198.5C 209.404,199.209 209.737,200.209 209.5,201.5C 211.5,201.5 213.5,201.5 215.5,201.5C 215.198,198.941 215.532,196.607 216.5,194.5 Z"/></g>
<g><path style="opacity:0.445" fill="#b7bbc2" d="M 261.5,199.5 C 262.461,201.265 262.795,203.265 262.5,205.5C 258.629,205.815 254.962,205.482 251.5,204.5C 254.833,204.5 258.167,204.5 261.5,204.5C 261.5,202.833 261.5,201.167 261.5,199.5 Z"/></g>
<g><path style="opacity:0.05" fill="#f2f3f4" d="M 127.5,198.5 C 127.833,198.5 128.167,198.5 128.5,198.5C 128.5,203.167 128.5,207.833 128.5,212.5C 136.352,212.175 144.018,212.508 151.5,213.5C 143.5,213.5 135.5,213.5 127.5,213.5C 127.5,208.5 127.5,203.5 127.5,198.5 Z"/></g>
<g><path style="opacity:0.878" fill="#bbbec5" d="M 256.5,216.5 C 259.189,217.189 260.856,218.856 261.5,221.5C 259.451,220.118 257.785,218.452 256.5,216.5 Z"/></g>
<g><path style="opacity:0.697" fill="#b7b7b0" d="M 499.5,213.5 C 500.473,215.948 500.806,218.615 500.5,221.5C 492.5,221.5 484.5,221.5 476.5,221.5C 483.982,220.508 491.648,220.175 499.5,220.5C 499.5,218.167 499.5,215.833 499.5,213.5 Z"/></g>
<g><path style="opacity:0.306" fill="#cfd1d6" d="M 247.5,223.5 C 249.027,223.427 250.027,224.094 250.5,225.5C 248.973,225.573 247.973,224.906 247.5,223.5 Z"/></g>
<g><path style="opacity:0.847" fill="#bbbec5" d="M 250.5,225.5 C 252.048,225.821 252.715,226.821 252.5,228.5C 251.599,227.71 250.932,226.71 250.5,225.5 Z"/></g>
<g><path style="opacity:0.045" fill="#f2f2f4" d="M 128.5,221.5 C 128.5,226.5 128.5,231.5 128.5,236.5C 137.167,236.5 145.833,236.5 154.5,236.5C 154.5,239.833 154.5,243.167 154.5,246.5C 141.989,246.829 129.655,246.495 117.5,245.5C 129.5,245.5 141.5,245.5 153.5,245.5C 153.5,242.833 153.5,240.167 153.5,237.5C 144.833,237.5 136.167,237.5 127.5,237.5C 127.179,231.974 127.512,226.64 128.5,221.5 Z"/></g>
</svg>
